<svg xmlns="http://www.w3.org/2000/svg" xmlns:xlink="http://www.w3.org/1999/xlink" width="150" zoomAndPan="magnify" viewBox="0 0 112.5 112.499997" height="150" preserveAspectRatio="xMidYMid meet" version="1.0"><defs><g/><clipPath id="84dd578dce"><path d="M 0 0 L 112.003906 0 L 112.003906 112.003906 L 0 112.003906 Z M 0 0 " clip-rule="nonzero"/></clipPath></defs><g clip-path="url(#84dd578dce)"><path fill="#ffffff" d="M 0 0 L 112.003906 0 L 112.003906 112.003906 L 0 112.003906 Z M 0 0 " fill-opacity="1" fill-rule="nonzero"/><path fill="#ffffff" d="M 0 0 L 112.003906 0 L 112.003906 112.003906 L 0 112.003906 Z M 0 0 " fill-opacity="1" fill-rule="nonzero"/></g><path fill="#0277bd" d="M 88.144531 12.710938 L 23.089844 12.710938 L 28.832031 77.765625 L 55.617188 85.417969 L 82.40625 77.765625 Z M 88.144531 12.710938 " fill-opacity="1" fill-rule="nonzero"/><path fill="#039be5" d="M 55.617188 18.449219 L 55.617188 79.484375 L 77.046875 73.363281 L 81.832031 18.449219 Z M 55.617188 18.449219 " fill-opacity="1" fill-rule="nonzero"/><path fill="#ffffff" d="M 73.027344 28.015625 L 55.617188 28.015625 L 55.617188 35.667969 L 64.992188 35.667969 L 64.417969 43.324219 L 55.617188 43.324219 L 55.617188 50.976562 L 64.035156 50.976562 L 63.460938 59.585938 L 55.617188 62.265625 L 55.617188 70.300781 L 70.734375 65.328125 L 72.074219 43.324219 Z M 73.027344 28.015625 " fill-opacity="1" fill-rule="nonzero"/><path fill="#eeeeee" d="M 55.617188 28.015625 L 55.617188 35.667969 L 38.589844 35.667969 L 38.015625 28.015625 Z M 46.816406 43.324219 L 47.199219 50.976562 L 55.617188 50.976562 L 55.617188 43.324219 Z M 47.582031 54.804688 L 39.925781 54.804688 L 40.5 65.328125 L 55.617188 70.300781 L 55.617188 62.265625 L 47.773438 59.585938 Z M 47.582031 54.804688 " fill-opacity="1" fill-rule="nonzero"/><g fill="#000000" fill-opacity="1"><g transform="translate(45.505422, 99.46275)"><g><path d="M 5.28125 -5.671875 C 5.207031 -6.210938 5.0625 -6.640625 4.84375 -6.953125 C 4.625 -7.273438 4.34375 -7.4375 4 -7.4375 C 3.519531 -7.4375 3.132812 -7.207031 2.84375 -6.75 C 2.5625 -6.289062 2.421875 -5.582031 2.421875 -4.625 C 2.421875 -3.46875 2.640625 -2.625 3.078125 -2.09375 C 3.523438 -1.5625 4.101562 -1.296875 4.8125 -1.296875 C 5.15625 -1.296875 5.457031 -1.359375 5.71875 -1.484375 C 5.988281 -1.609375 6.175781 -1.757812 6.28125 -1.9375 C 6.382812 -1.863281 6.46875 -1.753906 6.53125 -1.609375 C 6.59375 -1.472656 6.625 -1.34375 6.625 -1.21875 C 6.625 -1.019531 6.519531 -0.8125 6.3125 -0.59375 C 6.113281 -0.382812 5.820312 -0.203125 5.4375 -0.046875 C 5.050781 0.0976562 4.609375 0.171875 4.109375 0.171875 C 3.410156 0.171875 2.769531 0.0078125 2.1875 -0.3125 C 1.613281 -0.644531 1.15625 -1.140625 0.8125 -1.796875 C 0.46875 -2.460938 0.296875 -3.265625 0.296875 -4.203125 C 0.296875 -5.117188 0.453125 -5.894531 0.765625 -6.53125 C 1.078125 -7.175781 1.515625 -7.660156 2.078125 -7.984375 C 2.640625 -8.304688 3.296875 -8.46875 4.046875 -8.46875 C 4.210938 -8.46875 4.40625 -8.441406 4.625 -8.390625 C 4.851562 -8.347656 5.050781 -8.289062 5.21875 -8.21875 C 5.34375 -8.269531 5.519531 -8.320312 5.75 -8.375 C 5.976562 -8.4375 6.15625 -8.46875 6.28125 -8.46875 C 6.519531 -7.90625 6.640625 -6.972656 6.640625 -5.671875 Z M 5.28125 -5.671875 "/></g></g></g><g fill="#000000" fill-opacity="1"><g transform="translate(52.315175, 99.46275)"><g><path d="M 1.65625 -2.9375 C 1.78125 -2.269531 2.03125 -1.742188 2.40625 -1.359375 C 2.78125 -0.972656 3.222656 -0.78125 3.734375 -0.78125 C 4.066406 -0.78125 4.3125 -0.875 4.46875 -1.0625 C 4.625 -1.25 4.703125 -1.460938 4.703125 -1.703125 C 4.703125 -2.046875 4.550781 -2.332031 4.25 -2.5625 C 3.957031 -2.800781 3.53125 -3.054688 2.96875 -3.328125 C 2.226562 -3.691406 1.664062 -4.097656 1.28125 -4.546875 C 0.894531 -4.992188 0.703125 -5.535156 0.703125 -6.171875 C 0.703125 -6.640625 0.816406 -7.046875 1.046875 -7.390625 C 1.285156 -7.734375 1.609375 -8 2.015625 -8.1875 C 2.421875 -8.375 2.875 -8.46875 3.375 -8.46875 C 3.644531 -8.46875 3.929688 -8.441406 4.234375 -8.390625 C 4.546875 -8.335938 4.789062 -8.257812 4.96875 -8.15625 L 5.984375 -8.46875 C 6.128906 -8.21875 6.222656 -7.875 6.265625 -7.4375 C 6.304688 -7.007812 6.328125 -6.507812 6.328125 -5.9375 L 6.328125 -5.765625 L 5.328125 -5.765625 C 5.046875 -6.921875 4.484375 -7.5 3.640625 -7.5 C 3.328125 -7.5 3.085938 -7.410156 2.921875 -7.234375 C 2.765625 -7.054688 2.6875 -6.820312 2.6875 -6.53125 C 2.6875 -6.289062 2.75 -6.082031 2.875 -5.90625 C 3.007812 -5.726562 3.171875 -5.578125 3.359375 -5.453125 C 3.554688 -5.328125 3.816406 -5.1875 4.140625 -5.03125 C 4.648438 -4.78125 5.070312 -4.546875 5.40625 -4.328125 C 5.75 -4.117188 6.039062 -3.835938 6.28125 -3.484375 C 6.53125 -3.128906 6.65625 -2.707031 6.65625 -2.21875 C 6.65625 -1.769531 6.539062 -1.363281 6.3125 -1 C 6.09375 -0.644531 5.769531 -0.359375 5.34375 -0.140625 C 4.914062 0.0664062 4.421875 0.171875 3.859375 0.171875 C 3.210938 0.171875 2.570312 0.0351562 1.9375 -0.234375 L 1.015625 0.171875 C 0.859375 -0.128906 0.722656 -0.597656 0.609375 -1.234375 C 0.503906 -1.878906 0.453125 -2.445312 0.453125 -2.9375 Z M 1.65625 -2.9375 "/></g></g></g><g fill="#000000" fill-opacity="1"><g transform="translate(59.399704, 99.46275)"><g><path d="M 1.65625 -2.9375 C 1.78125 -2.269531 2.03125 -1.742188 2.40625 -1.359375 C 2.78125 -0.972656 3.222656 -0.78125 3.734375 -0.78125 C 4.066406 -0.78125 4.3125 -0.875 4.46875 -1.0625 C 4.625 -1.25 4.703125 -1.460938 4.703125 -1.703125 C 4.703125 -2.046875 4.550781 -2.332031 4.25 -2.5625 C 3.957031 -2.800781 3.53125 -3.054688 2.96875 -3.328125 C 2.226562 -3.691406 1.664062 -4.097656 1.28125 -4.546875 C 0.894531 -4.992188 0.703125 -5.535156 0.703125 -6.171875 C 0.703125 -6.640625 0.816406 -7.046875 1.046875 -7.390625 C 1.285156 -7.734375 1.609375 -8 2.015625 -8.1875 C 2.421875 -8.375 2.875 -8.46875 3.375 -8.46875 C 3.644531 -8.46875 3.929688 -8.441406 4.234375 -8.390625 C 4.546875 -8.335938 4.789062 -8.257812 4.96875 -8.15625 L 5.984375 -8.46875 C 6.128906 -8.21875 6.222656 -7.875 6.265625 -7.4375 C 6.304688 -7.007812 6.328125 -6.507812 6.328125 -5.9375 L 6.328125 -5.765625 L 5.328125 -5.765625 C 5.046875 -6.921875 4.484375 -7.5 3.640625 -7.5 C 3.328125 -7.5 3.085938 -7.410156 2.921875 -7.234375 C 2.765625 -7.054688 2.6875 -6.820312 2.6875 -6.53125 C 2.6875 -6.289062 2.75 -6.082031 2.875 -5.90625 C 3.007812 -5.726562 3.171875 -5.578125 3.359375 -5.453125 C 3.554688 -5.328125 3.816406 -5.1875 4.140625 -5.03125 C 4.648438 -4.78125 5.070312 -4.546875 5.40625 -4.328125 C 5.75 -4.117188 6.039062 -3.835938 6.28125 -3.484375 C 6.53125 -3.128906 6.65625 -2.707031 6.65625 -2.21875 C 6.65625 -1.769531 6.539062 -1.363281 6.3125 -1 C 6.09375 -0.644531 5.769531 -0.359375 5.34375 -0.140625 C 4.914062 0.0664062 4.421875 0.171875 3.859375 0.171875 C 3.210938 0.171875 2.570312 0.0351562 1.9375 -0.234375 L 1.015625 0.171875 C 0.859375 -0.128906 0.722656 -0.597656 0.609375 -1.234375 C 0.503906 -1.878906 0.453125 -2.445312 0.453125 -2.9375 Z M 1.65625 -2.9375 "/></g></g></g></svg>