<svg xmlns="http://www.w3.org/2000/svg" xmlns:xlink="http://www.w3.org/1999/xlink" width="50" zoomAndPan="magnify" viewBox="0 0 37.5 37.499999" height="50" preserveAspectRatio="xMidYMid meet" version="1.0"><defs><clipPath id="d3919ea786"><path d="M 0 0 L 37.007812 0 L 37.007812 37.007812 L 0 37.007812 Z M 0 0 " clip-rule="nonzero"/></clipPath></defs><g clip-path="url(#d3919ea786)"><path fill="#ffffff" d="M 0 0 L 37.007812 0 L 37.007812 37.007812 L 0 37.007812 Z M 0 0 " fill-opacity="1" fill-rule="nonzero"/><path fill="#ffffff" d="M 0 0 L 37.007812 0 L 37.007812 37.007812 L 0 37.007812 Z M 0 0 " fill-opacity="1" fill-rule="nonzero"/></g><path fill="#000000" d="M 18.503906 3.699219 C 10.328125 3.699219 3.699219 10.328125 3.699219 18.503906 C 3.699219 25.441406 8.476562 31.242188 14.917969 32.847656 C 14.847656 32.648438 14.800781 32.417969 14.800781 32.128906 L 14.800781 29.601562 C 14.203125 29.601562 13.195312 29.601562 12.941406 29.601562 C 11.929688 29.601562 11.027344 29.164062 10.59375 28.355469 C 10.109375 27.457031 10.023438 26.082031 8.824219 25.238281 C 8.464844 24.960938 8.738281 24.640625 9.148438 24.683594 C 9.90625 24.898438 10.535156 25.417969 11.128906 26.191406 C 11.71875 26.964844 11.996094 27.140625 13.097656 27.140625 C 13.628906 27.140625 14.429688 27.109375 15.183594 26.988281 C 15.585938 25.960938 16.285156 25.015625 17.140625 24.570312 C 12.210938 24.0625 9.859375 21.609375 9.859375 18.28125 C 9.859375 16.847656 10.46875 15.460938 11.507812 14.292969 C 11.167969 13.132812 10.738281 10.769531 11.636719 9.867188 C 13.855469 9.867188 15.199219 11.308594 15.519531 11.695312 C 16.625 11.316406 17.839844 11.101562 19.113281 11.101562 C 20.390625 11.101562 21.609375 11.316406 22.71875 11.699219 C 23.035156 11.3125 24.378906 9.867188 26.601562 9.867188 C 27.503906 10.769531 27.070312 13.144531 26.726562 14.300781 C 27.757812 15.46875 28.367188 16.851562 28.367188 18.28125 C 28.367188 21.609375 26.015625 24.058594 21.09375 24.570312 C 22.449219 25.277344 23.4375 27.261719 23.4375 28.757812 L 23.4375 32.128906 C 23.4375 32.257812 23.410156 32.351562 23.394531 32.460938 C 29.164062 30.4375 33.304688 24.960938 33.304688 18.503906 C 33.304688 10.328125 26.679688 3.699219 18.503906 3.699219 Z M 18.503906 3.699219 " fill-opacity="1" fill-rule="nonzero"/></svg>