<svg xmlns="http://www.w3.org/2000/svg" xmlns:xlink="http://www.w3.org/1999/xlink" width="50" zoomAndPan="magnify" viewBox="0 0 37.5 37.499999" height="50" preserveAspectRatio="xMidYMid meet" version="1.0"><path fill="#e0e0e0" d="M 4.242188 31.222656 L 32.765625 31.222656 C 34.257812 31.222656 35.464844 30.015625 35.464844 28.527344 L 35.464844 8.480469 C 35.464844 6.992188 34.257812 5.78125 32.765625 5.78125 L 4.242188 5.78125 C 2.75 5.78125 1.542969 6.992188 1.542969 8.480469 L 1.542969 28.527344 C 1.542969 30.015625 2.75 31.222656 4.242188 31.222656 Z M 4.242188 31.222656 " fill-opacity="1" fill-rule="nonzero"/><path fill="#d9d9d9" d="M 20.046875 31.222656 L 32.765625 31.222656 C 34.257812 31.222656 35.464844 30.015625 35.464844 28.527344 L 35.464844 8.480469 C 35.464844 6.992188 34.257812 5.78125 32.765625 5.78125 L 4.242188 5.78125 C 2.75 5.78125 1.542969 6.992188 1.542969 8.480469 Z M 20.046875 31.222656 " fill-opacity="1" fill-rule="nonzero"/><path fill="#eeeeee" d="M 5.199219 31.222656 L 32.765625 31.222656 C 34.257812 31.222656 35.464844 30.015625 35.464844 28.527344 L 35.464844 8.867188 Z M 5.199219 31.222656 " fill-opacity="1" fill-rule="nonzero"/><path fill="#e0e0e0" d="M 19.847656 31.222656 L 32.765625 31.222656 C 34.257812 31.222656 35.464844 30.015625 35.464844 28.527344 L 35.464844 8.867188 L 14.472656 24.375 Z M 19.847656 31.222656 " fill-opacity="1" fill-rule="nonzero"/><path fill="#ca3737" d="M 32.765625 7.324219 L 4.242188 7.324219 C 2.75 7.324219 1.542969 6.992188 1.542969 8.480469 L 1.542969 28.527344 C 1.542969 30.015625 2.75 31.222656 4.242188 31.222656 L 5.398438 31.222656 L 5.398438 9.25 L 31.609375 9.25 L 31.609375 31.222656 L 32.765625 31.222656 C 34.257812 31.222656 35.464844 30.015625 35.464844 28.527344 L 35.464844 8.480469 C 35.464844 6.992188 34.257812 7.324219 32.765625 7.324219 Z M 32.765625 7.324219 " fill-opacity="1" fill-rule="nonzero"/><path fill="#f5f5f5" d="M 32.765625 5.78125 L 4.242188 5.78125 C 2.75 5.78125 1.542969 6.964844 1.542969 8.480469 C 1.542969 9.410156 2.710938 10.222656 2.710938 10.222656 L 18.503906 21.398438 L 34.292969 10.222656 C 34.292969 10.222656 35.464844 9.410156 35.464844 8.480469 C 35.464844 6.964844 34.257812 5.78125 32.765625 5.78125 Z M 32.765625 5.78125 " fill-opacity="1" fill-rule="nonzero"/><path fill="#e84f4b" d="M 33.339844 5.84375 L 18.503906 16.191406 L 3.664062 5.84375 C 2.453125 6.105469 1.542969 7.167969 1.542969 8.480469 C 1.542969 9.410156 2.710938 10.222656 2.710938 10.222656 L 18.503906 21.398438 L 34.292969 10.222656 C 34.292969 10.222656 35.464844 9.410156 35.464844 8.480469 C 35.464844 7.167969 34.554688 6.105469 33.339844 5.84375 Z M 33.339844 5.84375 " fill-opacity="1" fill-rule="nonzero"/></svg>