<svg xmlns="http://www.w3.org/2000/svg" xmlns:xlink="http://www.w3.org/1999/xlink" width="150" zoomAndPan="magnify" viewBox="0 0 112.5 112.499997" height="150" preserveAspectRatio="xMidYMid meet" version="1.0"><defs><g/><clipPath id="bad09102c4"><path d="M 0 0 L 112.003906 0 L 112.003906 112.003906 L 0 112.003906 Z M 0 0 " clip-rule="nonzero"/></clipPath></defs><g clip-path="url(#bad09102c4)"><path fill="#ffffff" d="M 0 0 L 112.003906 0 L 112.003906 112.003906 L 0 112.003906 Z M 0 0 " fill-opacity="1" fill-rule="nonzero"/><path fill="#ffffff" d="M 0 0 L 112.003906 0 L 112.003906 112.003906 L 0 112.003906 Z M 0 0 " fill-opacity="1" fill-rule="nonzero"/></g><path fill="#e65100" d="M 88.371094 12.554688 L 24.375 12.554688 L 30.023438 76.550781 L 56.375 84.078125 L 82.726562 76.550781 Z M 88.371094 12.554688 " fill-opacity="1" fill-rule="nonzero"/><path fill="#ff6d00" d="M 56.375 18.199219 L 56.375 78.246094 L 77.457031 72.222656 L 82.160156 18.199219 Z M 56.375 18.199219 " fill-opacity="1" fill-rule="nonzero"/><path fill="#ffffff" d="M 56.375 50.199219 L 56.375 42.667969 L 72.5625 42.667969 L 71.246094 64.316406 L 56.375 69.210938 L 56.375 61.304688 L 64.089844 58.667969 L 64.65625 50.199219 Z M 73.125 35.140625 L 73.691406 27.613281 L 56.375 27.613281 L 56.375 35.140625 Z M 73.125 35.140625 " fill-opacity="1" fill-rule="nonzero"/><path fill="#eeeeee" d="M 56.375 61.304688 L 56.375 69.210938 L 41.503906 64.316406 L 40.75 53.964844 L 48.28125 53.964844 L 48.65625 58.667969 Z M 47.152344 35.140625 L 56.375 35.140625 L 56.375 27.613281 L 39.246094 27.613281 L 40.5625 50.199219 L 56.375 50.199219 L 56.375 42.667969 L 47.714844 42.667969 Z M 47.152344 35.140625 " fill-opacity="1" fill-rule="nonzero"/><g fill="#000000" fill-opacity="1"><g transform="translate(39.181964, 99.46275)"><g><path d="M 7.671875 -1.359375 C 7.671875 -1.140625 7.722656 -0.984375 7.828125 -0.890625 C 7.941406 -0.804688 8.125 -0.765625 8.375 -0.765625 C 8.375 -0.617188 8.347656 -0.476562 8.296875 -0.34375 C 8.253906 -0.207031 8.191406 -0.09375 8.109375 0 L 5.21875 0 C 5.132812 -0.09375 5.066406 -0.207031 5.015625 -0.34375 C 4.972656 -0.476562 4.953125 -0.617188 4.953125 -0.765625 C 5.210938 -0.765625 5.394531 -0.804688 5.5 -0.890625 C 5.613281 -0.984375 5.671875 -1.140625 5.671875 -1.359375 L 5.671875 -3.734375 L 3.03125 -3.734375 L 3.03125 -1.359375 C 3.03125 -1.140625 3.082031 -0.984375 3.1875 -0.890625 C 3.300781 -0.804688 3.488281 -0.765625 3.75 -0.765625 C 3.75 -0.617188 3.722656 -0.476562 3.671875 -0.34375 C 3.628906 -0.207031 3.566406 -0.09375 3.484375 0 L 0.578125 0 C 0.492188 -0.09375 0.425781 -0.207031 0.375 -0.34375 C 0.332031 -0.476562 0.3125 -0.617188 0.3125 -0.765625 C 0.570312 -0.765625 0.753906 -0.804688 0.859375 -0.890625 C 0.972656 -0.984375 1.03125 -1.140625 1.03125 -1.359375 L 1.03125 -6.984375 C 1.03125 -7.203125 0.972656 -7.359375 0.859375 -7.453125 C 0.753906 -7.546875 0.570312 -7.59375 0.3125 -7.59375 C 0.3125 -7.726562 0.332031 -7.863281 0.375 -8 C 0.425781 -8.132812 0.492188 -8.25 0.578125 -8.34375 L 3.484375 -8.34375 C 3.566406 -8.25 3.628906 -8.132812 3.671875 -8 C 3.722656 -7.863281 3.75 -7.726562 3.75 -7.59375 C 3.488281 -7.59375 3.300781 -7.546875 3.1875 -7.453125 C 3.082031 -7.359375 3.03125 -7.203125 3.03125 -6.984375 L 3.03125 -4.75 L 5.671875 -4.75 L 5.671875 -6.984375 C 5.671875 -7.203125 5.613281 -7.359375 5.5 -7.453125 C 5.382812 -7.546875 5.203125 -7.59375 4.953125 -7.59375 C 4.953125 -7.726562 4.972656 -7.863281 5.015625 -8 C 5.066406 -8.132812 5.132812 -8.25 5.21875 -8.34375 L 8.109375 -8.34375 C 8.191406 -8.25 8.253906 -8.132812 8.296875 -8 C 8.347656 -7.863281 8.375 -7.726562 8.375 -7.59375 C 8.125 -7.59375 7.941406 -7.546875 7.828125 -7.453125 C 7.722656 -7.359375 7.671875 -7.203125 7.671875 -6.984375 Z M 7.671875 -1.359375 "/></g></g></g><g fill="#000000" fill-opacity="1"><g transform="translate(47.867376, 99.46275)"><g><path d="M 7.125 -8.484375 C 7.25 -8.203125 7.347656 -7.695312 7.421875 -6.96875 C 7.492188 -6.238281 7.53125 -5.632812 7.53125 -5.15625 C 7.425781 -5.125 7.265625 -5.09375 7.046875 -5.0625 C 6.828125 -5.039062 6.628906 -5.03125 6.453125 -5.03125 C 6.410156 -5.664062 6.332031 -6.15625 6.21875 -6.5 C 6.113281 -6.84375 5.96875 -7.078125 5.78125 -7.203125 C 5.601562 -7.335938 5.363281 -7.40625 5.0625 -7.40625 L 4.859375 -7.40625 L 4.859375 -1.40625 C 4.859375 -1.1875 4.960938 -1.023438 5.171875 -0.921875 C 5.378906 -0.816406 5.695312 -0.765625 6.125 -0.765625 C 6.125 -0.617188 6.097656 -0.476562 6.046875 -0.34375 C 6.003906 -0.207031 5.941406 -0.09375 5.859375 0 L 1.796875 0 C 1.710938 -0.09375 1.644531 -0.207031 1.59375 -0.34375 C 1.550781 -0.476562 1.53125 -0.617188 1.53125 -0.765625 C 2.425781 -0.765625 2.875 -0.976562 2.875 -1.40625 L 2.875 -7.40625 L 2.625 -7.40625 C 1.78125 -7.40625 1.296875 -6.613281 1.171875 -5.03125 C 0.609375 -5.050781 0.25 -5.09375 0.09375 -5.15625 C 0.09375 -5.632812 0.128906 -6.238281 0.203125 -6.96875 C 0.273438 -7.695312 0.375 -8.203125 0.5 -8.484375 C 0.863281 -8.484375 1.191406 -8.4375 1.484375 -8.34375 L 6.140625 -8.34375 C 6.441406 -8.4375 6.769531 -8.484375 7.125 -8.484375 Z M 7.125 -8.484375 "/></g></g></g><g fill="#000000" fill-opacity="1"><g transform="translate(55.489516, 99.46275)"><g><path d="M 10.328125 -8.34375 C 10.410156 -8.25 10.476562 -8.132812 10.53125 -8 C 10.582031 -7.863281 10.609375 -7.726562 10.609375 -7.59375 C 10.335938 -7.59375 10.132812 -7.539062 10 -7.4375 C 9.863281 -7.34375 9.796875 -7.191406 9.796875 -6.984375 L 9.796875 -1.359375 C 9.796875 -1.140625 9.859375 -0.984375 9.984375 -0.890625 C 10.109375 -0.804688 10.316406 -0.765625 10.609375 -0.765625 C 10.609375 -0.617188 10.582031 -0.476562 10.53125 -0.34375 C 10.476562 -0.207031 10.410156 -0.09375 10.328125 0 L 7.359375 0 C 7.285156 -0.09375 7.222656 -0.207031 7.171875 -0.34375 C 7.117188 -0.476562 7.09375 -0.617188 7.09375 -0.765625 C 7.375 -0.765625 7.582031 -0.8125 7.71875 -0.90625 C 7.851562 -1 7.921875 -1.148438 7.921875 -1.359375 L 7.921875 -6.3125 L 5.890625 -1.1875 C 5.785156 -0.9375 5.640625 -0.765625 5.453125 -0.671875 C 5.273438 -0.578125 5.039062 -0.53125 4.75 -0.53125 L 2.375 -6.3125 L 2.375 -1.359375 C 2.375 -1.148438 2.453125 -1 2.609375 -0.90625 C 2.765625 -0.8125 3.003906 -0.765625 3.328125 -0.765625 C 3.328125 -0.617188 3.300781 -0.476562 3.25 -0.34375 C 3.195312 -0.207031 3.132812 -0.09375 3.0625 0 L 0.578125 0 C 0.492188 -0.09375 0.425781 -0.207031 0.375 -0.34375 C 0.332031 -0.476562 0.3125 -0.617188 0.3125 -0.765625 C 0.601562 -0.765625 0.816406 -0.8125 0.953125 -0.90625 C 1.085938 -1 1.15625 -1.148438 1.15625 -1.359375 L 1.15625 -6.984375 C 1.15625 -7.191406 1.082031 -7.34375 0.9375 -7.4375 C 0.800781 -7.539062 0.59375 -7.59375 0.3125 -7.59375 C 0.3125 -7.726562 0.332031 -7.863281 0.375 -8 C 0.425781 -8.132812 0.492188 -8.25 0.578125 -8.34375 L 2.46875 -8.34375 C 2.84375 -8.34375 3.140625 -8.285156 3.359375 -8.171875 C 3.578125 -8.066406 3.753906 -7.859375 3.890625 -7.546875 L 5.15625 -4.421875 L 5.640625 -2.9375 L 6.09375 -4.421875 L 7.609375 -8.34375 Z M 10.328125 -8.34375 "/></g></g></g><g fill="#000000" fill-opacity="1"><g transform="translate(66.397062, 99.46275)"><g><path d="M 0.578125 0 C 0.492188 -0.09375 0.425781 -0.207031 0.375 -0.34375 C 0.332031 -0.476562 0.3125 -0.617188 0.3125 -0.765625 C 0.582031 -0.765625 0.769531 -0.804688 0.875 -0.890625 C 0.988281 -0.984375 1.046875 -1.140625 1.046875 -1.359375 L 1.046875 -6.984375 C 1.046875 -7.203125 0.988281 -7.359375 0.875 -7.453125 C 0.769531 -7.546875 0.582031 -7.59375 0.3125 -7.59375 C 0.3125 -7.738281 0.332031 -7.875 0.375 -8 C 0.425781 -8.132812 0.492188 -8.25 0.578125 -8.34375 L 3.53125 -8.34375 C 3.707031 -8.15625 3.796875 -7.90625 3.796875 -7.59375 C 3.523438 -7.59375 3.328125 -7.539062 3.203125 -7.4375 C 3.078125 -7.34375 3.015625 -7.191406 3.015625 -6.984375 L 3.015625 -1.015625 L 3.453125 -1.015625 C 4.035156 -1.015625 4.46875 -1.203125 4.75 -1.578125 C 5.03125 -1.960938 5.171875 -2.503906 5.171875 -3.203125 L 6.015625 -3.203125 C 6.148438 -3.097656 6.253906 -2.875 6.328125 -2.53125 C 6.410156 -2.1875 6.453125 -1.851562 6.453125 -1.53125 C 6.453125 -1.03125 6.363281 -0.648438 6.1875 -0.390625 C 6.007812 -0.128906 5.722656 0 5.328125 0 Z M 0.578125 0 "/></g></g></g></svg>