<svg xmlns="http://www.w3.org/2000/svg" xmlns:xlink="http://www.w3.org/1999/xlink" width="150" zoomAndPan="magnify" viewBox="0 0 112.5 112.499997" height="150" preserveAspectRatio="xMidYMid meet" version="1.0"><defs><g/><clipPath id="6f74359b1f"><path d="M 0 0 L 112.003906 0 L 112.003906 112.003906 L 0 112.003906 Z M 0 0 " clip-rule="nonzero"/></clipPath><clipPath id="4131c5c47e"><path d="M 21.207031 28 L 90.644531 28 L 90.644531 71 L 21.207031 71 Z M 21.207031 28 " clip-rule="nonzero"/></clipPath></defs><g clip-path="url(#6f74359b1f)"><path fill="#ffffff" d="M 0 0 L 112.003906 0 L 112.003906 112.003906 L 0 112.003906 Z M 0 0 " fill-opacity="1" fill-rule="nonzero"/><path fill="#ffffff" d="M 0 0 L 112.003906 0 L 112.003906 112.003906 L 0 112.003906 Z M 0 0 " fill-opacity="1" fill-rule="nonzero"/></g><g clip-path="url(#4131c5c47e)"><path fill="#00acc1" d="M 55.925781 28.863281 C 46.667969 28.863281 40.878906 33.492188 38.566406 42.75 C 42.039062 38.121094 46.089844 36.386719 50.71875 37.542969 C 53.359375 38.203125 55.246094 40.117188 57.335938 42.238281 C 60.742188 45.691406 64.679688 49.691406 73.285156 49.691406 C 82.546875 49.691406 88.332031 45.0625 90.644531 35.804688 C 87.175781 40.433594 83.125 42.171875 78.496094 41.015625 C 75.855469 40.355469 73.964844 38.4375 71.875 36.316406 C 68.472656 32.863281 64.53125 28.863281 55.925781 28.863281 Z M 38.566406 49.691406 C 29.304688 49.691406 23.519531 54.320312 21.207031 63.578125 C 24.675781 58.949219 28.726562 57.214844 33.355469 58.371094 C 35.996094 59.03125 37.886719 60.945312 39.976562 63.066406 C 43.378906 66.519531 47.320312 70.519531 55.925781 70.519531 C 65.183594 70.519531 70.972656 65.890625 73.285156 56.632812 C 69.8125 61.261719 65.761719 63 61.132812 61.839844 C 58.492188 61.179688 56.605469 59.265625 54.515625 57.144531 C 51.109375 53.691406 47.171875 49.691406 38.566406 49.691406 Z M 38.566406 49.691406 " fill-opacity="1" fill-rule="nonzero"/></g><g fill="#000000" fill-opacity="1"><g transform="translate(15.716869, 99.46275)"><g><path d="M 7.125 -8.484375 C 7.25 -8.203125 7.347656 -7.695312 7.421875 -6.96875 C 7.492188 -6.238281 7.53125 -5.632812 7.53125 -5.15625 C 7.425781 -5.125 7.265625 -5.09375 7.046875 -5.0625 C 6.828125 -5.039062 6.628906 -5.03125 6.453125 -5.03125 C 6.410156 -5.664062 6.332031 -6.15625 6.21875 -6.5 C 6.113281 -6.84375 5.96875 -7.078125 5.78125 -7.203125 C 5.601562 -7.335938 5.363281 -7.40625 5.0625 -7.40625 L 4.859375 -7.40625 L 4.859375 -1.40625 C 4.859375 -1.1875 4.960938 -1.023438 5.171875 -0.921875 C 5.378906 -0.816406 5.695312 -0.765625 6.125 -0.765625 C 6.125 -0.617188 6.097656 -0.476562 6.046875 -0.34375 C 6.003906 -0.207031 5.941406 -0.09375 5.859375 0 L 1.796875 0 C 1.710938 -0.09375 1.644531 -0.207031 1.59375 -0.34375 C 1.550781 -0.476562 1.53125 -0.617188 1.53125 -0.765625 C 2.425781 -0.765625 2.875 -0.976562 2.875 -1.40625 L 2.875 -7.40625 L 2.625 -7.40625 C 1.78125 -7.40625 1.296875 -6.613281 1.171875 -5.03125 C 0.609375 -5.050781 0.25 -5.09375 0.09375 -5.15625 C 0.09375 -5.632812 0.128906 -6.238281 0.203125 -6.96875 C 0.273438 -7.695312 0.375 -8.203125 0.5 -8.484375 C 0.863281 -8.484375 1.191406 -8.4375 1.484375 -8.34375 L 6.140625 -8.34375 C 6.441406 -8.4375 6.769531 -8.484375 7.125 -8.484375 Z M 7.125 -8.484375 "/></g></g></g><g fill="#000000" fill-opacity="1"><g transform="translate(22.861134, 99.46275)"><g><path d="M 7.203125 -1.578125 C 7.273438 -1.316406 7.40625 -1.113281 7.59375 -0.96875 C 7.789062 -0.832031 8 -0.765625 8.21875 -0.765625 C 8.21875 -0.617188 8.191406 -0.476562 8.140625 -0.34375 C 8.085938 -0.207031 8.019531 -0.09375 7.9375 0 L 4.703125 0 C 4.609375 -0.09375 4.535156 -0.207031 4.484375 -0.34375 C 4.441406 -0.476562 4.421875 -0.617188 4.421875 -0.765625 C 4.878906 -0.765625 5.109375 -0.957031 5.109375 -1.34375 C 5.109375 -1.5 5.078125 -1.6875 5.015625 -1.90625 L 4.953125 -2.15625 L 2.265625 -2.15625 L 2.203125 -1.90625 C 2.128906 -1.65625 2.09375 -1.476562 2.09375 -1.375 C 2.09375 -0.96875 2.347656 -0.765625 2.859375 -0.765625 C 2.859375 -0.617188 2.832031 -0.476562 2.78125 -0.34375 C 2.738281 -0.207031 2.671875 -0.09375 2.578125 0 L -0.078125 0 C -0.171875 -0.09375 -0.238281 -0.207031 -0.28125 -0.34375 C -0.332031 -0.476562 -0.359375 -0.617188 -0.359375 -0.765625 C -0.140625 -0.765625 0.0625 -0.828125 0.25 -0.953125 C 0.4375 -1.085938 0.570312 -1.285156 0.65625 -1.546875 L 2.625 -7.328125 C 2.300781 -7.429688 1.894531 -7.484375 1.40625 -7.484375 C 1.40625 -7.828125 1.503906 -8.113281 1.703125 -8.34375 L 4.96875 -8.34375 Z M 4.6875 -3.078125 L 3.84375 -6.046875 C 3.769531 -6.285156 3.675781 -6.488281 3.5625 -6.65625 L 2.53125 -3.078125 Z M 4.6875 -3.078125 "/></g></g></g><g fill="#000000" fill-opacity="1"><g transform="translate(30.710266, 99.46275)"><g><path d="M 0.609375 0 C 0.523438 -0.09375 0.457031 -0.207031 0.40625 -0.34375 C 0.363281 -0.476562 0.34375 -0.617188 0.34375 -0.765625 C 0.601562 -0.765625 0.785156 -0.804688 0.890625 -0.890625 C 1.003906 -0.984375 1.0625 -1.140625 1.0625 -1.359375 L 1.0625 -6.984375 C 1.0625 -7.203125 1.003906 -7.359375 0.890625 -7.453125 C 0.785156 -7.546875 0.601562 -7.59375 0.34375 -7.59375 C 0.34375 -7.726562 0.363281 -7.863281 0.40625 -8 C 0.457031 -8.132812 0.523438 -8.25 0.609375 -8.34375 L 3.515625 -8.34375 C 3.597656 -8.25 3.660156 -8.132812 3.703125 -8 C 3.753906 -7.863281 3.78125 -7.726562 3.78125 -7.59375 C 3.507812 -7.59375 3.320312 -7.546875 3.21875 -7.453125 C 3.113281 -7.359375 3.0625 -7.203125 3.0625 -6.984375 L 3.0625 -1.359375 C 3.0625 -1.140625 3.113281 -0.984375 3.21875 -0.890625 C 3.320312 -0.804688 3.507812 -0.765625 3.78125 -0.765625 C 3.78125 -0.617188 3.753906 -0.476562 3.703125 -0.34375 C 3.660156 -0.207031 3.597656 -0.09375 3.515625 0 Z M 0.609375 0 "/></g></g></g><g fill="#000000" fill-opacity="1"><g transform="translate(34.83195, 99.46275)"><g><path d="M 0.578125 0 C 0.492188 -0.09375 0.425781 -0.207031 0.375 -0.34375 C 0.332031 -0.476562 0.3125 -0.617188 0.3125 -0.765625 C 0.582031 -0.765625 0.769531 -0.804688 0.875 -0.890625 C 0.988281 -0.984375 1.046875 -1.140625 1.046875 -1.359375 L 1.046875 -6.984375 C 1.046875 -7.203125 0.988281 -7.359375 0.875 -7.453125 C 0.769531 -7.546875 0.582031 -7.59375 0.3125 -7.59375 C 0.3125 -7.738281 0.332031 -7.875 0.375 -8 C 0.425781 -8.132812 0.492188 -8.25 0.578125 -8.34375 L 3.53125 -8.34375 C 3.707031 -8.15625 3.796875 -7.90625 3.796875 -7.59375 C 3.523438 -7.59375 3.328125 -7.539062 3.203125 -7.4375 C 3.078125 -7.34375 3.015625 -7.191406 3.015625 -6.984375 L 3.015625 -1.015625 L 3.453125 -1.015625 C 4.035156 -1.015625 4.46875 -1.203125 4.75 -1.578125 C 5.03125 -1.960938 5.171875 -2.503906 5.171875 -3.203125 L 6.015625 -3.203125 C 6.148438 -3.097656 6.253906 -2.875 6.328125 -2.53125 C 6.410156 -2.1875 6.453125 -1.851562 6.453125 -1.53125 C 6.453125 -1.03125 6.363281 -0.648438 6.1875 -0.390625 C 6.007812 -0.128906 5.722656 0 5.328125 0 Z M 0.578125 0 "/></g></g></g><g fill="#000000" fill-opacity="1"><g transform="translate(41.247444, 99.46275)"><g><path d="M 11.921875 -8.34375 C 12.035156 -8.132812 12.09375 -7.882812 12.09375 -7.59375 C 11.8125 -7.59375 11.59375 -7.550781 11.4375 -7.46875 C 11.289062 -7.382812 11.1875 -7.238281 11.125 -7.03125 L 9.625 -1.546875 C 9.46875 -0.984375 9.265625 -0.570312 9.015625 -0.3125 C 8.773438 -0.0507812 8.457031 0.078125 8.0625 0.078125 L 7.40625 0.078125 L 6.296875 -3.765625 L 5.828125 -5.515625 L 5.453125 -3.75 L 4.84375 -1.546875 C 4.6875 -0.972656 4.492188 -0.554688 4.265625 -0.296875 C 4.046875 -0.046875 3.738281 0.078125 3.34375 0.078125 L 2.703125 0.078125 L 0.578125 -7.03125 C 0.515625 -7.238281 0.425781 -7.382812 0.3125 -7.46875 C 0.207031 -7.550781 0.0234375 -7.59375 -0.234375 -7.59375 C -0.234375 -7.894531 -0.175781 -8.144531 -0.0625 -8.34375 L 3.171875 -8.34375 C 3.304688 -8.070312 3.375 -7.820312 3.375 -7.59375 C 3.09375 -7.59375 2.898438 -7.539062 2.796875 -7.4375 C 2.691406 -7.34375 2.640625 -7.21875 2.640625 -7.0625 L 3.671875 -3.203125 L 3.859375 -2.21875 L 5 -6.59375 C 5.0625 -6.925781 5.164062 -7.203125 5.3125 -7.421875 C 5.457031 -7.640625 5.644531 -7.75 5.875 -7.75 L 7.140625 -7.75 L 8.3125 -3.203125 L 8.578125 -2.171875 L 8.859375 -3.234375 L 9.734375 -6.671875 C 9.765625 -6.753906 9.78125 -6.832031 9.78125 -6.90625 C 9.78125 -7.113281 9.703125 -7.28125 9.546875 -7.40625 C 9.398438 -7.53125 9.195312 -7.59375 8.9375 -7.59375 C 8.9375 -7.894531 8.992188 -8.144531 9.109375 -8.34375 Z M 11.921875 -8.34375 "/></g></g></g><g fill="#000000" fill-opacity="1"><g transform="translate(53.098801, 99.46275)"><g><path d="M 0.609375 0 C 0.523438 -0.09375 0.457031 -0.207031 0.40625 -0.34375 C 0.363281 -0.476562 0.34375 -0.617188 0.34375 -0.765625 C 0.601562 -0.765625 0.785156 -0.804688 0.890625 -0.890625 C 1.003906 -0.984375 1.0625 -1.140625 1.0625 -1.359375 L 1.0625 -6.984375 C 1.0625 -7.203125 1.003906 -7.359375 0.890625 -7.453125 C 0.785156 -7.546875 0.601562 -7.59375 0.34375 -7.59375 C 0.34375 -7.726562 0.363281 -7.863281 0.40625 -8 C 0.457031 -8.132812 0.523438 -8.25 0.609375 -8.34375 L 3.515625 -8.34375 C 3.597656 -8.25 3.660156 -8.132812 3.703125 -8 C 3.753906 -7.863281 3.78125 -7.726562 3.78125 -7.59375 C 3.507812 -7.59375 3.320312 -7.546875 3.21875 -7.453125 C 3.113281 -7.359375 3.0625 -7.203125 3.0625 -6.984375 L 3.0625 -1.359375 C 3.0625 -1.140625 3.113281 -0.984375 3.21875 -0.890625 C 3.320312 -0.804688 3.507812 -0.765625 3.78125 -0.765625 C 3.78125 -0.617188 3.753906 -0.476562 3.703125 -0.34375 C 3.660156 -0.207031 3.597656 -0.09375 3.515625 0 Z M 0.609375 0 "/></g></g></g><g fill="#000000" fill-opacity="1"><g transform="translate(57.220485, 99.46275)"><g><path d="M 2.515625 -1.359375 C 2.515625 -0.953125 2.800781 -0.75 3.375 -0.75 C 3.375 -0.46875 3.285156 -0.21875 3.109375 0 L 0.625 0 C 0.445312 -0.21875 0.359375 -0.46875 0.359375 -0.75 C 0.640625 -0.75 0.847656 -0.796875 0.984375 -0.890625 C 1.117188 -0.992188 1.1875 -1.148438 1.1875 -1.359375 L 1.1875 -6.984375 C 1.1875 -7.390625 0.894531 -7.59375 0.3125 -7.59375 C 0.3125 -7.726562 0.332031 -7.863281 0.375 -8 C 0.425781 -8.132812 0.492188 -8.25 0.578125 -8.34375 L 2.234375 -8.34375 C 2.460938 -8.34375 2.691406 -8.253906 2.921875 -8.078125 C 3.160156 -7.898438 3.378906 -7.648438 3.578125 -7.328125 L 6.296875 -3.03125 L 6.296875 -6.984375 C 6.296875 -7.191406 6.222656 -7.34375 6.078125 -7.4375 C 5.941406 -7.539062 5.734375 -7.59375 5.453125 -7.59375 C 5.453125 -7.738281 5.472656 -7.875 5.515625 -8 C 5.566406 -8.132812 5.632812 -8.25 5.71875 -8.34375 L 8.265625 -8.34375 C 8.359375 -8.25 8.425781 -8.132812 8.46875 -8 C 8.519531 -7.863281 8.546875 -7.726562 8.546875 -7.59375 C 8.273438 -7.59375 8.066406 -7.539062 7.921875 -7.4375 C 7.785156 -7.34375 7.71875 -7.191406 7.71875 -6.984375 L 7.71875 0.078125 L 7.25 0.078125 C 6.851562 0.078125 6.5625 0.0234375 6.375 -0.078125 C 6.195312 -0.179688 6.023438 -0.351562 5.859375 -0.59375 L 2.515625 -5.671875 Z M 2.515625 -1.359375 "/></g></g></g><g fill="#000000" fill-opacity="1"><g transform="translate(65.870065, 99.46275)"><g><path d="M 3.484375 0.125 C 3.304688 0.125 3.085938 0.113281 2.828125 0.09375 C 1.972656 0.03125 1.222656 0 0.578125 0 C 0.398438 -0.21875 0.3125 -0.472656 0.3125 -0.765625 C 0.570312 -0.765625 0.757812 -0.8125 0.875 -0.90625 C 0.988281 -1 1.046875 -1.15625 1.046875 -1.375 L 1.046875 -7 C 1.046875 -7.207031 0.988281 -7.359375 0.875 -7.453125 C 0.757812 -7.546875 0.570312 -7.59375 0.3125 -7.59375 C 0.3125 -7.894531 0.398438 -8.144531 0.578125 -8.34375 C 1.179688 -8.34375 1.722656 -8.359375 2.203125 -8.390625 C 2.691406 -8.421875 2.984375 -8.441406 3.078125 -8.453125 C 3.347656 -8.472656 3.539062 -8.484375 3.65625 -8.484375 C 4.539062 -8.484375 5.285156 -8.300781 5.890625 -7.9375 C 6.492188 -7.570312 6.9375 -7.078125 7.21875 -6.453125 C 7.507812 -5.828125 7.65625 -5.125 7.65625 -4.34375 C 7.65625 -3.5 7.503906 -2.738281 7.203125 -2.0625 C 6.910156 -1.382812 6.453125 -0.847656 5.828125 -0.453125 C 5.210938 -0.0664062 4.429688 0.125 3.484375 0.125 Z M 3.390625 -0.859375 C 4.078125 -0.859375 4.601562 -1.117188 4.96875 -1.640625 C 5.34375 -2.160156 5.53125 -3.003906 5.53125 -4.171875 C 5.53125 -5.296875 5.332031 -6.132812 4.9375 -6.6875 C 4.539062 -7.25 3.992188 -7.53125 3.296875 -7.53125 C 3.160156 -7.53125 3.066406 -7.519531 3.015625 -7.5 L 3.015625 -0.890625 C 3.085938 -0.867188 3.210938 -0.859375 3.390625 -0.859375 Z M 3.390625 -0.859375 "/></g></g></g><g fill="#000000" fill-opacity="1"><g transform="translate(73.850609, 99.46275)"><g/></g></g><g fill="#000000" fill-opacity="1"><g transform="translate(76.120527, 99.46275)"><g><path d="M 5.28125 -5.671875 C 5.207031 -6.210938 5.0625 -6.640625 4.84375 -6.953125 C 4.625 -7.273438 4.34375 -7.4375 4 -7.4375 C 3.519531 -7.4375 3.132812 -7.207031 2.84375 -6.75 C 2.5625 -6.289062 2.421875 -5.582031 2.421875 -4.625 C 2.421875 -3.46875 2.640625 -2.625 3.078125 -2.09375 C 3.523438 -1.5625 4.101562 -1.296875 4.8125 -1.296875 C 5.15625 -1.296875 5.457031 -1.359375 5.71875 -1.484375 C 5.988281 -1.609375 6.175781 -1.757812 6.28125 -1.9375 C 6.382812 -1.863281 6.46875 -1.753906 6.53125 -1.609375 C 6.59375 -1.472656 6.625 -1.34375 6.625 -1.21875 C 6.625 -1.019531 6.519531 -0.8125 6.3125 -0.59375 C 6.113281 -0.382812 5.820312 -0.203125 5.4375 -0.046875 C 5.050781 0.0976562 4.609375 0.171875 4.109375 0.171875 C 3.410156 0.171875 2.769531 0.0078125 2.1875 -0.3125 C 1.613281 -0.644531 1.15625 -1.140625 0.8125 -1.796875 C 0.46875 -2.460938 0.296875 -3.265625 0.296875 -4.203125 C 0.296875 -5.117188 0.453125 -5.894531 0.765625 -6.53125 C 1.078125 -7.175781 1.515625 -7.660156 2.078125 -7.984375 C 2.640625 -8.304688 3.296875 -8.46875 4.046875 -8.46875 C 4.210938 -8.46875 4.40625 -8.441406 4.625 -8.390625 C 4.851562 -8.347656 5.050781 -8.289062 5.21875 -8.21875 C 5.34375 -8.269531 5.519531 -8.320312 5.75 -8.375 C 5.976562 -8.4375 6.15625 -8.46875 6.28125 -8.46875 C 6.519531 -7.90625 6.640625 -6.972656 6.640625 -5.671875 Z M 5.28125 -5.671875 "/></g></g></g><g fill="#000000" fill-opacity="1"><g transform="translate(82.93028, 99.46275)"><g><path d="M 1.65625 -2.9375 C 1.78125 -2.269531 2.03125 -1.742188 2.40625 -1.359375 C 2.78125 -0.972656 3.222656 -0.78125 3.734375 -0.78125 C 4.066406 -0.78125 4.3125 -0.875 4.46875 -1.0625 C 4.625 -1.25 4.703125 -1.460938 4.703125 -1.703125 C 4.703125 -2.046875 4.550781 -2.332031 4.25 -2.5625 C 3.957031 -2.800781 3.53125 -3.054688 2.96875 -3.328125 C 2.226562 -3.691406 1.664062 -4.097656 1.28125 -4.546875 C 0.894531 -4.992188 0.703125 -5.535156 0.703125 -6.171875 C 0.703125 -6.640625 0.816406 -7.046875 1.046875 -7.390625 C 1.285156 -7.734375 1.609375 -8 2.015625 -8.1875 C 2.421875 -8.375 2.875 -8.46875 3.375 -8.46875 C 3.644531 -8.46875 3.929688 -8.441406 4.234375 -8.390625 C 4.546875 -8.335938 4.789062 -8.257812 4.96875 -8.15625 L 5.984375 -8.46875 C 6.128906 -8.21875 6.222656 -7.875 6.265625 -7.4375 C 6.304688 -7.007812 6.328125 -6.507812 6.328125 -5.9375 L 6.328125 -5.765625 L 5.328125 -5.765625 C 5.046875 -6.921875 4.484375 -7.5 3.640625 -7.5 C 3.328125 -7.5 3.085938 -7.410156 2.921875 -7.234375 C 2.765625 -7.054688 2.6875 -6.820312 2.6875 -6.53125 C 2.6875 -6.289062 2.75 -6.082031 2.875 -5.90625 C 3.007812 -5.726562 3.171875 -5.578125 3.359375 -5.453125 C 3.554688 -5.328125 3.816406 -5.1875 4.140625 -5.03125 C 4.648438 -4.78125 5.070312 -4.546875 5.40625 -4.328125 C 5.75 -4.117188 6.039062 -3.835938 6.28125 -3.484375 C 6.53125 -3.128906 6.65625 -2.707031 6.65625 -2.21875 C 6.65625 -1.769531 6.539062 -1.363281 6.3125 -1 C 6.09375 -0.644531 5.769531 -0.359375 5.34375 -0.140625 C 4.914062 0.0664062 4.421875 0.171875 3.859375 0.171875 C 3.210938 0.171875 2.570312 0.0351562 1.9375 -0.234375 L 1.015625 0.171875 C 0.859375 -0.128906 0.722656 -0.597656 0.609375 -1.234375 C 0.503906 -1.878906 0.453125 -2.445312 0.453125 -2.9375 Z M 1.65625 -2.9375 "/></g></g></g><g fill="#000000" fill-opacity="1"><g transform="translate(90.014809, 99.46275)"><g><path d="M 1.65625 -2.9375 C 1.78125 -2.269531 2.03125 -1.742188 2.40625 -1.359375 C 2.78125 -0.972656 3.222656 -0.78125 3.734375 -0.78125 C 4.066406 -0.78125 4.3125 -0.875 4.46875 -1.0625 C 4.625 -1.25 4.703125 -1.460938 4.703125 -1.703125 C 4.703125 -2.046875 4.550781 -2.332031 4.25 -2.5625 C 3.957031 -2.800781 3.53125 -3.054688 2.96875 -3.328125 C 2.226562 -3.691406 1.664062 -4.097656 1.28125 -4.546875 C 0.894531 -4.992188 0.703125 -5.535156 0.703125 -6.171875 C 0.703125 -6.640625 0.816406 -7.046875 1.046875 -7.390625 C 1.285156 -7.734375 1.609375 -8 2.015625 -8.1875 C 2.421875 -8.375 2.875 -8.46875 3.375 -8.46875 C 3.644531 -8.46875 3.929688 -8.441406 4.234375 -8.390625 C 4.546875 -8.335938 4.789062 -8.257812 4.96875 -8.15625 L 5.984375 -8.46875 C 6.128906 -8.21875 6.222656 -7.875 6.265625 -7.4375 C 6.304688 -7.007812 6.328125 -6.507812 6.328125 -5.9375 L 6.328125 -5.765625 L 5.328125 -5.765625 C 5.046875 -6.921875 4.484375 -7.5 3.640625 -7.5 C 3.328125 -7.5 3.085938 -7.410156 2.921875 -7.234375 C 2.765625 -7.054688 2.6875 -6.820312 2.6875 -6.53125 C 2.6875 -6.289062 2.75 -6.082031 2.875 -5.90625 C 3.007812 -5.726562 3.171875 -5.578125 3.359375 -5.453125 C 3.554688 -5.328125 3.816406 -5.1875 4.140625 -5.03125 C 4.648438 -4.78125 5.070312 -4.546875 5.40625 -4.328125 C 5.75 -4.117188 6.039062 -3.835938 6.28125 -3.484375 C 6.53125 -3.128906 6.65625 -2.707031 6.65625 -2.21875 C 6.65625 -1.769531 6.539062 -1.363281 6.3125 -1 C 6.09375 -0.644531 5.769531 -0.359375 5.34375 -0.140625 C 4.914062 0.0664062 4.421875 0.171875 3.859375 0.171875 C 3.210938 0.171875 2.570312 0.0351562 1.9375 -0.234375 L 1.015625 0.171875 C 0.859375 -0.128906 0.722656 -0.597656 0.609375 -1.234375 C 0.503906 -1.878906 0.453125 -2.445312 0.453125 -2.9375 Z M 1.65625 -2.9375 "/></g></g></g></svg>